<svg width="120" height="48" viewBox="0 0 120 48" fill="none" xmlns="http://www.w3.org/2000/svg">
    <g filter="url(#filter0_d)">
        <path d="M0 4L112 4C113.105 4 114 4.89543 114 6V38C114 39.1046 113.105 40 112 40L0 40L0 4Z" fill="#297FB8"/>
    </g>
    <path fill-rule="evenodd" clip-rule="evenodd" d="M8.48649 11.0146H15.9189L22.3926 17.4883V27.8937L19.1372 24.6754V18.8335L14.5736 14.27H10.2703V29.7295H14.3804L17.6358 32.9849H8.48649C8.09224 32.9849 7.71415 32.8283 7.43538 32.5495C7.15661 32.2707 7 31.8926 7 31.4984V12.4862C7 12.092 7.15661 11.7139 7.43538 11.4351C7.71415 11.1564 8.09224 10.9998 8.48649 10.9998" fill="white"/>
    <path fill-rule="evenodd" clip-rule="evenodd" d="M27.5135 32.9849H20.0811L13.6074 26.5113V16.1059L16.8628 19.3241V25.1734L21.4263 29.7369H25.7446V14.2701H21.6196L18.3642 11.0146H27.5135C27.9077 11.0146 28.2858 11.1713 28.5646 11.45C28.8434 11.7288 29 12.1069 29 12.5011V31.5281C29 31.9224 28.8434 32.3005 28.5646 32.5793C28.2858 32.858 27.9077 33.0146 27.5135 33.0146" fill="white"/>
    <path opacity="0.7" d="M53.3204 13.452V11.408H54.9584C55.2897 11.408 55.5581 11.492 55.7634 11.66C55.9687 11.828 56.0714 12.0847 56.0714 12.43C56.0714 12.7753 55.9687 13.032 55.7634 13.2C55.5581 13.368 55.2897 13.452 54.9584 13.452H53.3204ZM52.8444 11.002V16H53.3204V13.858H55.0634C55.2874 13.858 55.4904 13.8277 55.6724 13.767C55.8544 13.7017 56.0107 13.6083 56.1414 13.487C56.2721 13.361 56.3724 13.2093 56.4424 13.032C56.5124 12.8547 56.5474 12.654 56.5474 12.43C56.5474 12.206 56.5124 12.0053 56.4424 11.828C56.3724 11.6507 56.2721 11.5013 56.1414 11.38C56.0107 11.254 55.8544 11.1607 55.6724 11.1C55.4904 11.0347 55.2874 11.002 55.0634 11.002H52.8444ZM58.8356 12.654C59.0456 12.654 59.2299 12.6983 59.3886 12.787C59.5472 12.8757 59.6779 12.9923 59.7806 13.137C59.8879 13.2817 59.9672 13.4473 60.0186 13.634C60.0746 13.816 60.1026 14.0027 60.1026 14.194C60.1026 14.3853 60.0746 14.5743 60.0186 14.761C59.9672 14.943 59.8879 15.1063 59.7806 15.251C59.6779 15.3957 59.5472 15.5123 59.3886 15.601C59.2299 15.6897 59.0456 15.734 58.8356 15.734C58.6256 15.734 58.4412 15.6897 58.2826 15.601C58.1239 15.5123 57.9909 15.3957 57.8836 15.251C57.7809 15.1063 57.7016 14.943 57.6456 14.761C57.5942 14.5743 57.5686 14.3853 57.5686 14.194C57.5686 14.0027 57.5942 13.816 57.6456 13.634C57.7016 13.4473 57.7809 13.2817 57.8836 13.137C57.9909 12.9923 58.1239 12.8757 58.2826 12.787C58.4412 12.6983 58.6256 12.654 58.8356 12.654ZM58.8356 12.283C58.5602 12.283 58.3152 12.3343 58.1006 12.437C57.8906 12.5397 57.7132 12.6773 57.5686 12.85C57.4239 13.0227 57.3142 13.2257 57.2396 13.459C57.1649 13.6877 57.1276 13.9327 57.1276 14.194C57.1276 14.4553 57.1649 14.7027 57.2396 14.936C57.3142 15.1647 57.4239 15.3653 57.5686 15.538C57.7132 15.7107 57.8906 15.8483 58.1006 15.951C58.3152 16.049 58.5602 16.098 58.8356 16.098C59.1109 16.098 59.3536 16.049 59.5636 15.951C59.7782 15.8483 59.9579 15.7107 60.1026 15.538C60.2472 15.3653 60.3569 15.1647 60.4316 14.936C60.5062 14.7027 60.5436 14.4553 60.5436 14.194C60.5436 13.9327 60.5062 13.6877 60.4316 13.459C60.3569 13.2257 60.2472 13.0227 60.1026 12.85C59.9579 12.6773 59.7782 12.5397 59.5636 12.437C59.3536 12.3343 59.1109 12.283 58.8356 12.283ZM60.9752 12.388L62.1372 16H62.6202L63.5022 12.962H63.5162L64.4052 16H64.8882L66.0502 12.388H65.5812L64.6572 15.482H64.6432L63.7612 12.388H63.2642L62.3822 15.482H62.3682L61.4442 12.388H60.9752ZM69.2647 13.942H66.9267C66.9454 13.7787 66.9827 13.62 67.0387 13.466C67.0994 13.3073 67.1787 13.1697 67.2767 13.053C67.3747 12.9317 67.4937 12.836 67.6337 12.766C67.7737 12.6913 67.9347 12.654 68.1167 12.654C68.294 12.654 68.4527 12.6913 68.5927 12.766C68.7327 12.836 68.8517 12.9317 68.9497 13.053C69.0477 13.1697 69.1224 13.305 69.1737 13.459C69.2297 13.613 69.26 13.774 69.2647 13.942ZM66.9267 14.313H69.7057C69.715 14.061 69.6917 13.8137 69.6357 13.571C69.5797 13.3237 69.4864 13.1067 69.3557 12.92C69.2297 12.7287 69.064 12.5747 68.8587 12.458C68.6534 12.3413 68.406 12.283 68.1167 12.283C67.832 12.283 67.5847 12.339 67.3747 12.451C67.1694 12.5583 67.0014 12.703 66.8707 12.885C66.74 13.0623 66.642 13.2653 66.5767 13.494C66.516 13.7227 66.4857 13.956 66.4857 14.194C66.4857 14.4507 66.516 14.6957 66.5767 14.929C66.642 15.1577 66.74 15.3607 66.8707 15.538C67.0014 15.7107 67.1694 15.8483 67.3747 15.951C67.5847 16.049 67.832 16.098 68.1167 16.098C68.574 16.098 68.9264 15.986 69.1737 15.762C69.4257 15.538 69.5984 15.2207 69.6917 14.81H69.2507C69.1807 15.09 69.0547 15.314 68.8727 15.482C68.6907 15.65 68.4387 15.734 68.1167 15.734C67.9067 15.734 67.727 15.6897 67.5777 15.601C67.4284 15.5123 67.3047 15.4003 67.2067 15.265C67.1087 15.1297 67.0364 14.978 66.9897 14.81C66.9477 14.6373 66.9267 14.4717 66.9267 14.313ZM70.4376 12.388V16H70.8786V14.075C70.8786 13.8837 70.9113 13.7087 70.9766 13.55C71.0419 13.3867 71.1329 13.2467 71.2496 13.13C71.3709 13.0133 71.5133 12.9247 71.6766 12.864C71.8399 12.7987 72.0219 12.7707 72.2226 12.78V12.339C71.8959 12.325 71.6136 12.3973 71.3756 12.556C71.1423 12.7147 70.9696 12.941 70.8576 13.235H70.8436V12.388H70.4376ZM75.2595 13.942H72.9215C72.9402 13.7787 72.9775 13.62 73.0335 13.466C73.0942 13.3073 73.1735 13.1697 73.2715 13.053C73.3695 12.9317 73.4885 12.836 73.6285 12.766C73.7685 12.6913 73.9295 12.654 74.1115 12.654C74.2889 12.654 74.4475 12.6913 74.5875 12.766C74.7275 12.836 74.8465 12.9317 74.9445 13.053C75.0425 13.1697 75.1172 13.305 75.1685 13.459C75.2245 13.613 75.2549 13.774 75.2595 13.942ZM72.9215 14.313H75.7005C75.7099 14.061 75.6865 13.8137 75.6305 13.571C75.5745 13.3237 75.4812 13.1067 75.3505 12.92C75.2245 12.7287 75.0589 12.5747 74.8535 12.458C74.6482 12.3413 74.4009 12.283 74.1115 12.283C73.8269 12.283 73.5795 12.339 73.3695 12.451C73.1642 12.5583 72.9962 12.703 72.8655 12.885C72.7349 13.0623 72.6369 13.2653 72.5715 13.494C72.5109 13.7227 72.4805 13.956 72.4805 14.194C72.4805 14.4507 72.5109 14.6957 72.5715 14.929C72.6369 15.1577 72.7349 15.3607 72.8655 15.538C72.9962 15.7107 73.1642 15.8483 73.3695 15.951C73.5795 16.049 73.8269 16.098 74.1115 16.098C74.5689 16.098 74.9212 15.986 75.1685 15.762C75.4205 15.538 75.5932 15.2207 75.6865 14.81H75.2455C75.1755 15.09 75.0495 15.314 74.8675 15.482C74.6855 15.65 74.4335 15.734 74.1115 15.734C73.9015 15.734 73.7219 15.6897 73.5725 15.601C73.4232 15.5123 73.2995 15.4003 73.2015 15.265C73.1035 15.1297 73.0312 14.978 72.9845 14.81C72.9425 14.6373 72.9215 14.4717 72.9215 14.313ZM79.6104 16V11.002H79.1694V13.074H79.1554C79.1088 12.9433 79.0411 12.829 78.9524 12.731C78.8684 12.633 78.7704 12.5513 78.6584 12.486C78.5464 12.416 78.4251 12.3647 78.2944 12.332C78.1684 12.2993 78.0378 12.283 77.9024 12.283C77.6271 12.283 77.3868 12.3343 77.1814 12.437C76.9808 12.5397 76.8128 12.6797 76.6774 12.857C76.5421 13.0297 76.4418 13.2327 76.3764 13.466C76.3111 13.6947 76.2784 13.9373 76.2784 14.194C76.2784 14.4507 76.3111 14.6957 76.3764 14.929C76.4418 15.1577 76.5421 15.3607 76.6774 15.538C76.8128 15.7107 76.9808 15.8483 77.1814 15.951C77.3868 16.049 77.6271 16.098 77.9024 16.098C78.0331 16.098 78.1638 16.0793 78.2944 16.042C78.4298 16.0047 78.5558 15.9533 78.6724 15.888C78.7891 15.818 78.8918 15.734 78.9804 15.636C79.0738 15.538 79.1438 15.4307 79.1904 15.314H79.2044V16H79.6104ZM76.7194 14.194C76.7194 14.0073 76.7404 13.823 76.7824 13.641C76.8291 13.4543 76.8991 13.2887 76.9924 13.144C77.0904 12.9993 77.2141 12.8827 77.3634 12.794C77.5128 12.7007 77.6924 12.654 77.9024 12.654C78.1358 12.654 78.3318 12.7007 78.4904 12.794C78.6538 12.8827 78.7844 12.9993 78.8824 13.144C78.9851 13.2887 79.0574 13.4543 79.0994 13.641C79.1461 13.823 79.1694 14.0073 79.1694 14.194C79.1694 14.3807 79.1461 14.5673 79.0994 14.754C79.0574 14.936 78.9851 15.0993 78.8824 15.244C78.7844 15.3887 78.6538 15.5077 78.4904 15.601C78.3318 15.6897 78.1358 15.734 77.9024 15.734C77.6924 15.734 77.5128 15.6897 77.3634 15.601C77.2141 15.5077 77.0904 15.3887 76.9924 15.244C76.8991 15.0993 76.8291 14.936 76.7824 14.754C76.7404 14.5673 76.7194 14.3807 76.7194 14.194ZM82.6802 11.002V16H83.0862V15.314H83.1002C83.2029 15.566 83.3685 15.7597 83.5972 15.895C83.8305 16.0303 84.0942 16.098 84.3882 16.098C84.6635 16.098 84.9015 16.049 85.1022 15.951C85.3075 15.8483 85.4779 15.7107 85.6132 15.538C85.7485 15.3607 85.8489 15.1577 85.9142 14.929C85.9795 14.6957 86.0122 14.4507 86.0122 14.194C86.0122 13.9373 85.9795 13.6947 85.9142 13.466C85.8489 13.2327 85.7485 13.0297 85.6132 12.857C85.4779 12.6797 85.3075 12.5397 85.1022 12.437C84.9015 12.3343 84.6635 12.283 84.3882 12.283C84.2575 12.283 84.1269 12.2993 83.9962 12.332C83.8655 12.3647 83.7442 12.416 83.6322 12.486C83.5202 12.5513 83.4199 12.633 83.3312 12.731C83.2472 12.829 83.1819 12.9433 83.1352 13.074H83.1212V11.002H82.6802ZM85.5712 14.194C85.5712 14.3807 85.5479 14.5673 85.5012 14.754C85.4592 14.936 85.3892 15.0993 85.2912 15.244C85.1979 15.3887 85.0765 15.5077 84.9272 15.601C84.7779 15.6897 84.5982 15.734 84.3882 15.734C84.1549 15.734 83.9565 15.6897 83.7932 15.601C83.6345 15.5077 83.5039 15.3887 83.4012 15.244C83.3032 15.0993 83.2309 14.936 83.1842 14.754C83.1422 14.5673 83.1212 14.3807 83.1212 14.194C83.1212 14.0073 83.1422 13.823 83.1842 13.641C83.2309 13.4543 83.3032 13.2887 83.4012 13.144C83.5039 12.9993 83.6345 12.8827 83.7932 12.794C83.9565 12.7007 84.1549 12.654 84.3882 12.654C84.5982 12.654 84.7779 12.7007 84.9272 12.794C85.0765 12.8827 85.1979 12.9993 85.2912 13.144C85.3892 13.2887 85.4592 13.4543 85.5012 13.641C85.5479 13.823 85.5712 14.0073 85.5712 14.194ZM86.4337 12.388L87.8757 15.986L87.7217 16.392C87.6844 16.476 87.6494 16.553 87.6167 16.623C87.5841 16.693 87.5444 16.7513 87.4977 16.798C87.4511 16.8493 87.3951 16.889 87.3297 16.917C87.2691 16.945 87.1897 16.959 87.0917 16.959C87.0404 16.959 86.9891 16.9543 86.9377 16.945C86.8911 16.9403 86.8421 16.9333 86.7907 16.924V17.295C86.8281 17.309 86.8701 17.316 86.9167 17.316C86.9681 17.3207 87.0381 17.3253 87.1267 17.33C87.2667 17.33 87.3811 17.316 87.4697 17.288C87.5631 17.2647 87.6424 17.2227 87.7077 17.162C87.7777 17.106 87.8407 17.0267 87.8967 16.924C87.9527 16.826 88.0134 16.7 88.0787 16.546L89.6467 12.388H89.2057L88.0927 15.468L86.9027 12.388H86.4337Z" fill="white"/>
    <path d="M41.5712 27.2399C41.3566 27.0246 41.0993 26.8566 40.8158 26.7467C40.4725 26.6175 40.1076 26.555 39.7409 26.5626H36.0002V28.1256H39.793C39.902 28.1142 40.0123 28.1273 40.1156 28.1639C40.219 28.2006 40.3128 28.2599 40.3903 28.3375C40.5203 28.4888 40.5891 28.6833 40.5831 28.8827C40.5838 28.9855 40.5674 29.0876 40.5345 29.1849C40.5047 29.2759 40.4575 29.3602 40.3956 29.4333C40.3307 29.5094 40.2485 29.569 40.1559 29.6069C40.0376 29.6554 39.9104 29.6785 39.7825 29.6746H37.2731C36.8442 29.6746 36.5229 29.7788 36.318 29.9838C36.1131 30.1887 36.0106 30.5065 36.0106 30.9424V33.8686H37.5631V31.1751H39.7409C40.1211 31.1846 40.4989 31.1124 40.8488 30.9632C41.1357 30.8382 41.3926 30.6535 41.6025 30.4214C41.7949 30.1992 41.9381 29.9388 42.0228 29.6573C42.1065 29.3873 42.1492 29.1063 42.1495 28.8237C42.1497 28.5357 42.1034 28.2495 42.0123 27.9762C41.9211 27.7035 41.7704 27.4544 41.5712 27.2469" fill="white"/>
    <path d="M48.6948 30.9754C48.6948 31.5225 48.5993 31.9149 48.41 32.1407C48.2207 32.3665 47.922 32.4672 47.5018 32.4672H46.5623C46.142 32.4672 45.8364 32.3578 45.6558 32.1407C45.4751 31.9236 45.3779 31.5225 45.3779 30.9754C45.3779 30.4284 45.4751 30.0325 45.6644 29.8032C45.8537 29.574 46.1524 29.4715 46.571 29.4715H47.5105C47.9307 29.4715 48.2364 29.5827 48.417 29.8032C48.5976 30.0238 48.6948 30.4215 48.6948 30.9754ZM47.606 28.0805H46.4598C45.6853 28.0805 45.0705 28.3236 44.6086 28.8047C44.1466 29.2857 43.9261 30.0203 43.9261 30.9754C43.9261 31.9306 44.1623 32.6669 44.6086 33.1445C45.0549 33.622 45.6853 33.8686 46.4598 33.8686H47.606C47.9471 33.8837 48.2875 33.8272 48.6054 33.7027C48.9233 33.5783 49.2117 33.3887 49.452 33.1462C49.907 32.6669 50.1466 31.9306 50.1466 30.9754C50.1466 30.0203 49.9157 29.2909 49.452 28.8099C49.2129 28.5653 48.9249 28.3739 48.6068 28.2482C48.2887 28.1225 47.9477 28.0654 47.606 28.0805Z" fill="white"/>
    <path d="M59.3785 32.4829C59.3774 32.5453 59.3574 32.6058 59.3212 32.6566C59.3108 32.667 59.276 32.6913 59.1753 32.6913C58.9791 32.6913 58.9443 32.6062 58.927 32.5177L58.1941 29.2181C58.1299 28.8611 57.9462 28.5365 57.6731 28.2977C57.3548 28.0687 56.967 27.957 56.5756 27.9816C56.1796 27.9597 55.7876 28.0697 55.4607 28.2942C55.1774 28.5249 54.9839 28.8474 54.9137 29.2059L54.1409 32.5055C54.1288 32.5594 54.1017 32.6088 54.0627 32.6479C54.0143 32.6773 53.9574 32.6896 53.9012 32.6826C53.7866 32.6826 53.7484 32.6566 53.7276 32.6444C53.6916 32.5974 53.671 32.5404 53.6685 32.4812L53.1753 28.0806H51.6436L52.2375 32.5958C52.2629 32.784 52.3113 32.9683 52.3817 33.1446C52.4491 33.3164 52.5521 33.472 52.6838 33.6013C52.8255 33.734 52.9944 33.8342 53.1788 33.8948C53.4029 33.968 53.6378 34.0026 53.8734 33.9973C54.2694 34.0192 54.6615 33.9092 54.9883 33.6847C55.2779 33.4445 55.475 33.1112 55.5458 32.7417L56.3186 29.423C56.3307 29.3727 56.3516 29.2858 56.5565 29.2858C56.6168 29.2848 56.6764 29.2985 56.7302 29.3258C56.7461 29.3365 56.7595 29.3507 56.7694 29.3672C56.7793 29.3837 56.7855 29.4021 56.7875 29.4213L57.5342 32.7347C57.5969 33.1019 57.7861 33.4355 58.0691 33.6777C58.3886 33.9028 58.7747 34.0136 59.1649 33.9921C59.7032 33.9921 60.1114 33.8601 60.3805 33.5978C60.6495 33.3241 60.8195 32.9684 60.8633 32.5871L61.4989 28.0806H59.9655L59.3785 32.4829Z" fill="white"/>
    <path d="M65.5227 29.4711H67.2767C67.4448 29.4547 67.6128 29.5038 67.7456 29.6083C67.7931 29.658 67.8298 29.717 67.8534 29.7815C67.877 29.8461 67.887 29.9148 67.8828 29.9834C67.8857 30.0471 67.8757 30.1108 67.8533 30.1705C67.8309 30.2302 67.7966 30.2847 67.7525 30.3308C67.6046 30.4319 67.4253 30.4769 67.2472 30.4575H64.8558V30.0564C64.8494 29.9007 64.9029 29.7484 65.0052 29.6309C65.0761 29.5694 65.159 29.5234 65.2488 29.4958C65.3385 29.4683 65.433 29.4599 65.5262 29.4711H65.5227ZM67.2802 31.6593C68.0009 31.6593 68.5045 31.5099 68.8223 31.2043C68.9861 31.035 69.113 30.8335 69.1949 30.6125C69.2768 30.3916 69.3119 30.1561 69.2981 29.9209C69.3119 29.6749 69.2763 29.4286 69.1933 29.1966C69.1104 28.9645 68.9819 28.7514 68.8153 28.5698C68.4941 28.2451 67.9817 28.0801 67.2906 28.0801H65.5227C65.2056 28.0725 64.8897 28.1219 64.5901 28.226C64.3451 28.3144 64.1231 28.4569 63.9406 28.6428C63.7671 28.824 63.6386 29.0435 63.5655 29.2836C63.4895 29.5305 63.452 29.7876 63.4544 30.046V31.9024C63.4521 32.163 63.4896 32.4224 63.5655 32.6717C63.6402 32.909 63.7686 33.1259 63.9406 33.3056C64.1239 33.4902 64.3457 33.6319 64.5901 33.7206C64.89 33.8234 65.2058 33.8722 65.5227 33.8648H69.0255V32.4668H65.5227C65.4298 32.4777 65.3356 32.4695 65.246 32.4426C65.1564 32.4158 65.0733 32.3708 65.0017 32.3105C64.8993 32.1925 64.8464 32.0394 64.8541 31.8833V31.6593H67.2802Z" fill="white"/>
    <path d="M72.0055 28.5201C71.7554 28.805 71.6287 29.2495 71.6287 29.84V33.8689H73.0614V30.005C73.0614 29.6316 73.2211 29.4718 73.5945 29.4718H75.6784V28.0825H73.2732C72.6897 28.0825 72.2625 28.2301 72.0055 28.5219" fill="white"/>
    <path d="M77.2743 28.1205H79.3079V33.8687H80.8743V28.1205H82.9079V26.5627H77.2743V28.1205Z" fill="white"/>
    <path d="M86.6398 29.4711H88.3938C88.562 29.4547 88.73 29.5038 88.8627 29.6083C88.9102 29.658 88.9469 29.717 88.9705 29.7815C88.9941 29.8461 89.0041 29.9148 88.9999 29.9834C89.0029 30.0471 88.9928 30.1108 88.9704 30.1705C88.948 30.2302 88.9138 30.2847 88.8697 30.3308C88.7217 30.4319 88.5425 30.4769 88.3643 30.4575H85.973V30.0564C85.9665 29.9007 86.02 29.7484 86.1223 29.6309C86.1932 29.5694 86.2762 29.5234 86.3659 29.4958C86.4556 29.4683 86.5501 29.4599 86.6433 29.4711H86.6398ZM88.3973 31.6593C89.118 31.6593 89.6216 31.5099 89.9394 31.2043C90.1032 31.035 90.2301 30.8335 90.312 30.6125C90.3939 30.3916 90.4291 30.1561 90.4152 29.9209C90.429 29.6749 90.3934 29.4286 90.3105 29.1966C90.2276 28.9645 90.099 28.7514 89.9325 28.5698C89.6112 28.2451 89.0989 28.0801 88.4077 28.0801H86.6398C86.3228 28.0725 86.0069 28.1219 85.7073 28.226C85.4623 28.3144 85.2403 28.4569 85.0578 28.6428C84.8843 28.824 84.7558 29.0435 84.6827 29.2836C84.6067 29.5305 84.5692 29.7876 84.5715 30.046V31.9024C84.5684 32.1631 84.6059 32.4226 84.6827 32.6717C84.7573 32.909 84.8857 33.1259 85.0578 33.3056C85.2407 33.4905 85.4626 33.6323 85.7073 33.7206C86.0072 33.8234 86.3229 33.8722 86.6398 33.8648H90.1426V32.4668H86.6398C86.5469 32.4777 86.4528 32.4695 86.3631 32.4426C86.2735 32.4158 86.1904 32.3708 86.1189 32.3105C86.0164 32.1925 85.9635 32.0394 85.9712 31.8833V31.6593H88.3973Z" fill="white"/>
    <path d="M93.1783 28.805C92.7268 29.2825 92.4976 30.0206 92.4976 30.9757C92.4976 31.9309 92.7268 32.6672 93.1783 33.1448C93.6298 33.6223 94.2568 33.8689 95.0313 33.8689H98.0078V32.4675H95.1337C94.7135 32.4675 94.4078 32.3581 94.2272 32.141C94.0466 31.9239 93.9407 31.5228 93.9407 30.9757C93.9407 30.4287 94.0379 30.0327 94.2272 29.8035C94.4165 29.5743 94.7152 29.4718 95.1337 29.4718H98.0078V28.0825H95.0313C94.2568 28.0825 93.6333 28.3256 93.1783 28.8067" fill="white"/>
    <path d="M105.673 28.7561C105.189 28.3081 104.458 28.0806 103.494 28.0806H101.743V25.717H100.311V33.8687H101.743V29.4716H103.494C104.015 29.4716 104.402 29.5758 104.63 29.779C104.745 29.8877 104.835 30.0208 104.894 30.1685C104.952 30.3162 104.977 30.475 104.966 30.6334V33.8687H106.41V30.6334C106.41 29.838 106.161 29.2059 105.673 28.7561Z" fill="white"/>
    <path d="M55.8254 22.433C55.815 22.8741 55.8132 23.3152 55.8011 23.7563C55.8029 23.809 55.7943 23.8616 55.7757 23.911C55.7571 23.9604 55.7289 24.0056 55.6927 24.0441C55.6566 24.0825 55.6131 24.1134 55.565 24.1349C55.5168 24.1565 55.4648 24.1683 55.4121 24.1696C55.1724 24.1922 54.9293 24.1939 54.6879 24.1957C54.3915 24.1957 54.0945 24.1957 53.797 24.1957C53.668 24.1937 53.5393 24.1838 53.4115 24.1661C53.306 24.1581 53.2078 24.1091 53.138 24.0296C53.0682 23.95 53.0324 23.8463 53.0381 23.7407C53.0288 23.4431 53.0288 23.1462 53.0381 22.8498C53.0485 22.4208 53.2013 22.3288 53.5956 22.301C53.9429 22.2784 54.2902 22.301 54.6514 22.301C54.9987 22.301 55.3461 22.301 55.6934 22.301C55.7959 22.301 55.8323 22.3323 55.8288 22.4365L55.8254 22.433ZM55.8288 20.6842C55.8288 20.8249 55.8288 20.9673 55.8288 21.1062C55.8288 21.2452 55.7906 21.2521 55.6812 21.2504C55.0231 21.2504 54.3666 21.2399 53.7102 21.2504C53.4256 21.2561 53.1421 21.2863 52.8627 21.3407C52.6135 21.3755 52.3831 21.4925 52.2079 21.673C52.0327 21.8536 51.9227 22.0874 51.8954 22.3375C51.7909 22.9705 51.7968 23.6168 51.9128 24.2478C51.9456 24.4439 52.0316 24.6273 52.1615 24.7779C52.2913 24.9286 52.46 25.0407 52.6491 25.1022C52.9916 25.2133 53.3502 25.2667 53.7102 25.2602C54.1634 25.2724 54.6184 25.2776 55.0717 25.2602C55.3991 25.2506 55.725 25.2128 56.0459 25.1473C56.2201 25.1162 56.3838 25.0423 56.5223 24.9323C56.6608 24.8222 56.7698 24.6795 56.8396 24.5169C56.9642 24.2205 57.0234 23.9006 57.0132 23.5792C57.0132 22.3861 57.0132 21.1931 57.0132 20H56.2856C55.9226 20.1441 55.8236 20.2935 55.8236 20.6808L55.8288 20.6842Z" fill="white"/>
    <path d="M67.914 25.0937C67.914 25.2535 67.914 25.2552 68.079 25.2552C68.1884 25.2552 68.2978 25.2552 68.4072 25.2552C68.5007 25.2644 68.5951 25.2527 68.6835 25.2211C68.772 25.1894 68.8523 25.1385 68.9187 25.0721C68.9852 25.0057 69.036 24.9253 69.0677 24.8369C69.0994 24.7484 69.111 24.6541 69.1018 24.5606C69.081 23.852 69.1018 23.1452 69.0932 22.4367C69.0932 22.3238 69.1314 22.2891 69.2425 22.2908C69.5898 22.2908 69.9545 22.2908 70.3105 22.2908C70.6665 22.2908 71.0052 22.2769 71.3525 22.2908C71.6998 22.3047 71.8735 22.4211 71.8822 22.8118C71.8822 22.9282 71.8822 23.0462 71.8822 23.1591C71.8822 23.6193 71.8822 24.0813 71.8822 24.5484C71.8746 24.6398 71.8869 24.7318 71.9184 24.8179C71.9499 24.904 71.9998 24.9823 72.0646 25.0472C72.1293 25.1122 72.2075 25.1622 72.2935 25.1939C72.3796 25.2257 72.4715 25.2383 72.5629 25.2309C72.688 25.2309 72.813 25.2309 72.938 25.2309C73.0631 25.2309 73.0787 25.1962 73.0787 25.0885C73.0787 24.3105 73.0787 23.5255 73.0787 22.7545C73.066 22.5187 73.024 22.2853 72.9537 22.0598C72.9106 21.9149 72.8351 21.7816 72.7328 21.6703C72.6304 21.5589 72.504 21.4724 72.3632 21.4173C72.0441 21.2856 71.7012 21.2211 71.356 21.228C70.6613 21.228 69.9563 21.228 69.2564 21.228C69.0966 21.228 69.0966 21.228 69.0966 21.0648C69.0966 20.931 69.0966 20.7991 69.0966 20.6653C69.0914 20.2972 68.9959 20.1461 68.6486 20.002H67.9209C67.9209 20.6706 67.9209 21.3391 67.9209 22.0077V25.0937" fill="white"/>
    <path d="M61.4365 23.6158C61.4191 23.7616 61.4157 23.911 61.3896 24.0569C61.3796 24.1437 61.3372 24.2236 61.2709 24.2806C61.2046 24.3376 61.1192 24.3674 61.0319 24.3642C60.2851 24.3747 59.5384 24.3851 58.7934 24.3833C58.5155 24.3833 58.4339 24.2861 58.4356 24.0082C58.4321 23.9067 58.4373 23.805 58.4513 23.7043C58.4523 23.6755 58.4592 23.6472 58.4716 23.6211C58.4839 23.595 58.5014 23.5717 58.5229 23.5525C58.5445 23.5334 58.5698 23.5188 58.5971 23.5097C58.6245 23.5005 58.6535 23.497 58.6822 23.4994C58.9913 23.4873 59.2987 23.4838 59.6078 23.4803H60.0889C60.3893 23.4803 60.6915 23.4803 60.9937 23.4803H61.2958C61.4 23.4803 61.4504 23.5081 61.4365 23.6192V23.6158ZM61.9436 21.4502C61.6152 21.3077 61.2594 21.2395 60.9016 21.2505C60.1392 21.2505 59.3769 21.2505 58.6145 21.2505H58.5763C58.4825 21.2401 58.4391 21.2765 58.4443 21.3755C58.4495 21.4745 58.4443 21.6117 58.4443 21.7229C58.4498 21.7923 58.47 21.8597 58.5034 21.9208C58.5405 21.9926 58.5982 22.0517 58.669 22.0906C58.7398 22.1296 58.8205 22.1466 58.901 22.1396H60.8825C61.2385 22.1396 61.3583 22.2421 61.4122 22.5703C61.4348 22.7075 61.4243 22.7214 61.2889 22.7214H59.8458V22.711C59.2588 22.7231 58.6718 22.7214 58.0866 22.7509C57.9087 22.7542 57.7365 22.8145 57.5955 22.923C57.4545 23.0315 57.3521 23.1824 57.3033 23.3535C57.2299 23.6866 57.217 24.0301 57.2651 24.3677C57.2756 24.5554 57.3485 24.7342 57.4721 24.8757C57.5958 25.0173 57.7631 25.1135 57.9476 25.1492C58.1084 25.1981 58.2747 25.2267 58.4426 25.2343C59.0764 25.2482 59.7086 25.2586 60.3424 25.2517C60.737 25.254 61.1314 25.232 61.5233 25.1857C62.1832 25.0971 62.5201 24.755 62.5653 24.1437C62.6052 23.551 62.6052 22.9563 62.5653 22.3637C62.5584 22.1678 62.4964 21.9779 62.3864 21.8157C62.2764 21.6535 62.123 21.5256 61.9436 21.4467V21.4502Z" fill="white"/>
    <path d="M67.0161 22.848C66.7771 22.794 66.5334 22.7632 66.2885 22.756C65.639 22.7438 64.9895 22.756 64.34 22.756C64.0413 22.756 64.0413 22.756 64.0413 22.4625V22.4052C64.0413 22.1829 64.0795 22.1429 64.2983 22.1429C64.7846 22.1429 65.2691 22.1429 65.7536 22.1429C65.8145 22.1492 65.8759 22.1418 65.9336 22.1213C65.9912 22.1008 66.0435 22.0678 66.0868 22.0245C66.13 21.9813 66.1631 21.929 66.1835 21.8713C66.204 21.8137 66.2114 21.7522 66.2051 21.6914C66.2051 21.582 66.2051 21.4709 66.2051 21.3614C66.2051 21.2833 66.1791 21.2486 66.0975 21.2503C65.2761 21.2503 64.4546 21.2503 63.6332 21.2816C63.2529 21.2972 62.9594 21.4761 62.909 21.9015C62.8741 22.248 62.8741 22.5971 62.909 22.9435C62.9166 23.0944 62.976 23.238 63.0773 23.35C63.1785 23.462 63.3154 23.5356 63.4648 23.5583C63.6283 23.5964 63.7953 23.6173 63.9632 23.6208C64.4842 23.6295 65.0051 23.6208 65.5348 23.6208C65.7623 23.6208 65.9898 23.6208 66.2156 23.6208C66.325 23.6208 66.3892 23.6677 66.3892 23.7771C66.3979 23.8741 66.4014 23.9715 66.3996 24.0688C66.3996 24.279 66.351 24.3311 66.1478 24.3606C66.0902 24.3677 66.0322 24.3706 65.9742 24.3693H63.305C63.2481 24.3659 63.191 24.3744 63.1375 24.3942C63.084 24.414 63.0352 24.4447 62.9943 24.4844C62.9533 24.5241 62.921 24.5719 62.8994 24.6247C62.8779 24.6775 62.8676 24.7342 62.8691 24.7913C62.8691 24.8972 62.8691 25.0031 62.8691 25.1073C62.8691 25.2115 62.9091 25.2636 63.0237 25.2619H63.4387C63.852 25.2619 64.2653 25.2619 64.6787 25.2619C65.0572 25.2619 65.4358 25.2619 65.8144 25.2619H66.193C66.435 25.2556 66.6763 25.2335 66.9154 25.1959C67.0733 25.181 67.2217 25.114 67.3374 25.0056C67.453 24.8971 67.5294 24.7533 67.5545 24.5968C67.6226 24.2104 67.6184 23.8147 67.5423 23.4298C67.5242 23.2927 67.4645 23.1646 67.3714 23.0624C67.2783 22.9603 67.1561 22.8891 67.0214 22.8584" fill="white"/>
    <path d="M80.0321 22.7198C80.0425 22.6347 80.0477 22.5462 80.0651 22.4646C80.0724 22.4033 80.1012 22.3467 80.1463 22.3047C80.1915 22.2628 80.2501 22.2382 80.3117 22.2353C80.4118 22.2212 80.5127 22.2131 80.6138 22.211C81.2164 22.211 81.819 22.211 82.4199 22.211H82.5033C82.7325 22.211 82.7898 22.2787 82.7915 22.5097C82.7915 22.5844 82.7915 22.6591 82.7915 22.732C82.8002 22.8345 82.762 22.8692 82.6578 22.8675H80.4818H80.1727C80.0581 22.8675 80.0164 22.8275 80.0321 22.7181V22.7198ZM80.1797 23.7045H83.8405C83.9186 23.7045 83.9742 23.6958 83.9742 23.5916C83.9742 23.1418 83.9742 22.6921 83.9742 22.2423C83.9785 22.0707 83.9326 21.9016 83.8422 21.7557C83.7518 21.6098 83.6209 21.4934 83.4653 21.4209C83.1932 21.2966 82.896 21.2371 82.597 21.2472C81.9128 21.2472 81.2286 21.2472 80.5444 21.2472C80.2906 21.2539 80.0378 21.2823 79.7889 21.3323C79.5429 21.3653 79.3167 21.4851 79.1512 21.6701C78.9856 21.8551 78.8915 22.0931 78.8859 22.3413C78.8555 22.907 78.8555 23.4739 78.8859 24.0397C78.9224 24.6961 79.3322 25.1129 79.9904 25.1876C80.3898 25.2327 80.7927 25.2431 81.1938 25.2518C81.6714 25.2622 82.149 25.2518 82.6266 25.2518C82.7273 25.2518 82.769 25.2206 82.7603 25.1181C82.7516 25.0156 82.7603 24.9132 82.7603 24.8125C82.7661 24.7426 82.7566 24.6723 82.7324 24.6064C82.7083 24.5406 82.6701 24.4808 82.6205 24.4312C82.5709 24.3817 82.5112 24.3435 82.4453 24.3193C82.3795 24.2952 82.3092 24.2857 82.2393 24.2915C81.6593 24.2915 81.081 24.2915 80.5027 24.2915C80.4244 24.2906 80.3465 24.2819 80.27 24.2654C80.2155 24.2547 80.1662 24.2262 80.1297 24.1844C80.0932 24.1426 80.0717 24.0899 80.0685 24.0345C80.0598 23.9772 80.0512 23.9181 80.0477 23.8608C80.0234 23.7219 80.0373 23.7062 80.1797 23.7062V23.7045Z" fill="white"/>
    <path d="M90.5299 20.5642C90.0836 20.5642 89.6373 20.5642 89.191 20.5642C89.1452 20.5685 89.1025 20.5895 89.0712 20.6233C88.5247 21.1952 87.9783 21.7688 87.4318 22.3442C87.3432 22.4363 87.2582 22.5335 87.1765 22.629C87.1625 22.6157 87.1474 22.6035 87.1314 22.5926C86.7511 22.1793 86.369 21.7659 85.9904 21.3492C85.9628 21.3147 85.9276 21.2872 85.8875 21.2688C85.8474 21.2504 85.8035 21.2417 85.7595 21.2432C85.3531 21.2432 84.945 21.2432 84.5438 21.2432C84.5074 21.2432 84.4691 21.2432 84.4327 21.2432C84.4327 21.2432 84.4205 21.2623 84.4136 21.2727C85.07 21.9361 85.7265 22.5995 86.3968 23.2803L84.4518 25.2548C84.4882 25.2566 84.5247 25.2566 84.5612 25.2548C84.9571 25.2548 85.3513 25.2548 85.7473 25.2548C85.7858 25.2566 85.8242 25.2498 85.8596 25.2347C85.8951 25.2197 85.9268 25.1969 85.9522 25.168C86.1838 24.9364 86.4188 24.7014 86.6573 24.4629C86.8136 24.3066 86.9733 24.1521 87.1349 23.9923C87.1713 24.0253 87.1974 24.0479 87.2199 24.0722C87.5673 24.4421 87.9267 24.8137 88.2845 25.1784C88.332 25.2222 88.3936 25.2475 88.4582 25.2496C88.8541 25.2496 89.2483 25.2496 89.6443 25.2496C89.6807 25.2496 89.7172 25.2496 89.7537 25.2409L89.7693 25.2114L87.8469 23.3011L90.5907 20.5885C90.5699 20.5799 90.5484 20.5729 90.5265 20.5677" fill="white"/>
    <path d="M78.5473 23.963C78.5473 23.7164 78.5473 23.4698 78.5473 23.2232C78.5473 23.1415 78.5473 23.0582 78.5473 22.9766C78.5376 22.7198 78.5068 22.4642 78.4553 22.2124C78.4166 22.0133 78.3224 21.8292 78.1835 21.6814C78.0446 21.5336 77.8667 21.4281 77.6704 21.3771C77.3595 21.2839 77.0362 21.2394 76.7117 21.2451C76.2654 21.2451 75.8191 21.233 75.3745 21.2451C75.0628 21.2517 74.752 21.2836 74.4455 21.3407C74.2261 21.3716 74.0218 21.4697 73.8604 21.6215C73.699 21.7732 73.5886 21.9711 73.5442 22.1881C73.4855 22.4265 73.4517 22.6704 73.4434 22.9158C73.4295 23.6538 73.4434 24.3936 73.4434 25.1317C73.4434 25.2151 73.473 25.255 73.5598 25.2533C73.7155 25.2617 73.8716 25.2588 74.0269 25.2446C74.168 25.2225 74.3033 25.1723 74.4246 25.097C74.5001 25.04 74.5594 24.9645 74.5969 24.8777C74.6343 24.791 74.6486 24.696 74.6382 24.602C74.6382 24.0342 74.6382 23.468 74.6382 22.9019C74.6382 22.6918 74.6712 22.4677 74.9074 22.3809C75.0048 22.3392 75.1089 22.3156 75.2148 22.3114C75.7427 22.3045 76.2706 22.3045 76.7986 22.3114C76.9488 22.3052 77.0959 22.3561 77.2102 22.4538C77.2643 22.5131 77.3052 22.5833 77.33 22.6597C77.3549 22.7361 77.3632 22.8169 77.3543 22.8967C77.3543 23.4715 77.3543 24.0463 77.3543 24.6211C77.351 24.7048 77.3648 24.7882 77.3948 24.8663C77.4249 24.9444 77.4706 25.0156 77.5291 25.0754C77.5876 25.1353 77.6578 25.1825 77.7352 25.2143C77.8127 25.2461 77.8958 25.2617 77.9795 25.2602C78.1236 25.2602 78.2677 25.2602 78.4136 25.2602C78.5213 25.2602 78.5543 25.2203 78.5526 25.1161C78.5526 24.7323 78.5526 24.3485 78.5526 23.9664" fill="white"/>
    <path d="M85.8289 23.6139C85.9366 23.5062 86.0425 23.3934 86.1624 23.2666C85.9505 23.0669 85.7473 22.8845 85.5546 22.6918C85.1256 22.2593 84.6862 21.8321 84.2781 21.3824C84.1166 21.2087 83.9447 21.2469 83.7572 21.2486L83.7294 21.2938L85.7247 23.2857C85.0718 23.9352 84.4223 24.5847 83.7589 25.2463C83.9794 25.2602 84.1792 25.3002 84.3268 25.097C84.4095 24.9983 84.5001 24.9066 84.5977 24.8226L85.822 23.607" fill="white"/>
    <defs>
        <filter id="filter0_d" x="-6" y="0" width="126" height="48" filterUnits="userSpaceOnUse" color-interpolation-filters="sRGB">
            <feFlood flood-opacity="0" result="BackgroundImageFix"/>
            <feColorMatrix in="SourceAlpha" type="matrix" values="0 0 0 0 0 0 0 0 0 0 0 0 0 0 0 0 0 0 127 0"/>
            <feOffset dy="2"/>
            <feGaussianBlur stdDeviation="3"/>
            <feColorMatrix type="matrix" values="0 0 0 0 0.0730035 0 0 0 0 0.0866692 0 0 0 0 0.120833 0 0 0 0.16 0"/>
            <feBlend mode="normal" in2="BackgroundImageFix" result="effect1_dropShadow"/>
            <feBlend mode="normal" in="SourceGraphic" in2="effect1_dropShadow" result="shape"/>
        </filter>
    </defs>
</svg>
