<svg width="12" height="12" viewBox="0 0 12 12" fill="none" xmlns="http://www.w3.org/2000/svg">
<path fill-rule="evenodd" clip-rule="evenodd" d="M6 12C9.31371 12 12 9.31371 12 6C12 2.68629 9.31371 0 6 0C2.68629 0 0 2.68629 0 6C0 9.31371 2.68629 12 6 12ZM5.32468 9.29489H6.66761V4.97219H5.32468V9.29489ZM5.28904 3.77013C5.27981 4.14161 5.5624 4.44265 5.98713 4.44265C6.4282 4.44265 6.71247 4.14161 6.71289 3.77013C6.70408 3.38147 6.42904 3.08923 5.99593 3.08923C5.5624 3.08923 5.28023 3.38147 5.28904 3.77013Z" fill="#48B0F7"/>
</svg>
